<mxfile host="app.diagrams.net" modified="2023-12-30T05:45:13.578Z" agent="Mozilla/5.0 (Macintosh; Intel Mac OS X 10_15_7) AppleWebKit/605.1.15 (KHTML, like Gecko) Version/17.2.1 Safari/605.1.15" version="22.1.16" etag="lA4Kqvb0qPlqr7vpni6y" type="github">
  <diagram name="Page-1" id="7O1TdtifLI_yqDDrMI72">
    <mxGraphModel>
      <root>
        <mxCell id="0" />
        <mxCell id="1" parent="0" />
      </root>
    </mxGraphModel>
  </diagram>
</mxfile>
